{
    "asset" : {
        "generator" : "Khronos glTF Blender I/O v1.6.16",
        "version" : "2.0"
    },
    "scene" : 0,
    "scenes" : [
        {
            "extras" : {
                "glTF2ExportSettings" : {
                    "export_apply" : 1,
                    "export_extras" : 1,
                    "export_format" : "GLTF_EMBEDDED",
                    "export_image_format" : "JPEG",
                    "export_tangents" : 1,
                    "export_texture_dir" : "textures",
                    "use_mesh_edges" : 1,
                    "use_mesh_vertices" : 1,
                    "use_selection" : 1
                },
                "ats_settings" : {
                    "num_tiles" : [
                        60,
                        34
                    ],
                    "threads_error" : 0,
                    "prev_engine" : "CYCLES",
                    "prev_device" : "CPU",
                    "prev_border" : 0,
                    "prev_threads" : 6,
                    "prev_choice" : "32",
                    "prev_res" : [
                        1920,
                        1080
                    ],
                    "prev_border_res" : [
                        0,
                        0,
                        1,
                        1
                    ],
                    "prev_actual_tile_size" : [
                        32,
                        32
                    ],
                    "first_run" : 0
                }
            },
            "name" : "Scene",
            "nodes" : [
                0
            ]
        }
    ],
    "nodes" : [
        {
            "mesh" : 0,
            "name" : "Suzanne",
            "scale" : [
                0.6655755043029785,
                0.6655755043029785,
                0.6655755043029785
            ],
            "translation" : [
                -0.04449322074651718,
                0.263458251953125,
                0
            ]
        }
    ],
    "materials" : [
        {
            "doubleSided" : true,
            "name" : "Material.001",
            "pbrMetallicRoughness" : {
                "baseColorTexture" : {
                    "index" : 0
                },
                "metallicFactor" : 0,
                "roughnessFactor" : 0.6047618985176086
            }
        }
    ],
    "meshes" : [
        {
            "name" : "Suzanne",
            "primitives" : [
                {
                    "attributes" : {
                        "POSITION" : 0,
                        "NORMAL" : 1,
                        "TANGENT" : 2,
                        "TEXCOORD_0" : 3
                    },
                    "indices" : 4,
                    "material" : 0
                }
            ]
        }
    ],
    "textures" : [
        {
            "sampler" : 0,
            "source" : 0
        }
    ],
    "images" : [
        {
            "bufferView" : 5,
            "mimeType" : "image/jpeg",
            "name" : "Ring_nirmana"
        }
    ],
    "accessors" : [
        {
            "bufferView" : 0,
            "componentType" : 5126,
            "count" : 7872,
            "max" : [
                2.56827449798584,
                1.5399904251098633,
                1.9516369104385376
            ],
            "min" : [
                -2.568272829055786,
                -1.393265962600708,
                -1.9022860527038574
            ],
            "type" : "VEC3"
        },
        {
            "bufferView" : 1,
            "componentType" : 5126,
            "count" : 7872,
            "type" : "VEC3"
        },
        {
            "bufferView" : 2,
            "componentType" : 5126,
            "count" : 7872,
            "type" : "VEC4"
        },
        {
            "bufferView" : 3,
            "componentType" : 5126,
            "count" : 7872,
            "type" : "VEC2"
        },
        {
            "bufferView" : 4,
            "componentType" : 5123,
            "count" : 11808,
            "type" : "SCALAR"
        }
    ],
    "bufferViews" : [
        {
            "buffer" : 0,
            "byteLength" : 94464,
            "byteOffset" : 0
        },
        {
            "buffer" : 0,
            "byteLength" : 94464,
            "byteOffset" : 94464
        },
        {
            "buffer" : 0,
            "byteLength" : 125952,
            "byteOffset" : 188928
        },
        {
            "buffer" : 0,
            "byteLength" : 62976,
            "byteOffset" : 314880
        },
        {
            "buffer" : 0,
            "byteLength" : 23616,
            "byteOffset" : 377856
        },
        {
            "buffer" : 0,
            "byteLength" : 68682,
            "byteOffset" : 401472
        }
    ],
    "samplers" : [
        {
            "magFilter" : 9729,
            "minFilter" : 9987
        }
    ],
    "buffers" : [
        {
            "byteLength" : 470156,
            "uri" : "data:application/octet-stream;base64,"
        }
    ]
}
